# xmcd
#
# Track frame offsets: 
#        150
#        17729
#        32830
#        46111
#        59902
#        84819
#        100055
#        114052
#        127372
#        129698
#        150894
#        170635
#
# Disc length: 2482 seconds
#
# Revision: 0
# Processed by: cddbd v1.5.2PL0 Copyright (c) Steve Scherf et al.
# Submitted via: ExactAudioCopy v1.3
#
DISCID=9509b00c
DTITLE=Sam Baker - Pretty World
DYEAR=2009
DGENRE=Folk
TTITLE0=Juarez
TTITLE1=Orphan
TTITLE2=Slots
TTITLE3=Pretty World
TTITLE4=Odessa
TTITLE5=Sweetly Undone
TTITLE6=Psychic
TTITLE7=Boxes
TTITLE8=Prelude to Pretty World
TTITLE9=Broken Fingers
TTITLE10=Days
TTITLE11=Recessional Pretty World
EXTD=
EXTT0=
EXTT1=
EXTT2=
EXTT3=
EXTT4=
EXTT5=
EXTT6=
EXTT7=
EXTT8=
EXTT9=
EXTT10=
EXTT11=
PLAYORDER=
